# xmcd
#
# Track frame offsets: 
#        150
#        12841
#        25679
#        41909
#        54799
#        65924
#        79530
#        94689
#        108561
#        121453
#        131972
#        145853
#        158278
#        171364
#        185244
#        198556
#        213255
#        225934
#        239003
#        252503
#        265103
#        278466
#        291308
#        305782
#
# Disc length: 4228 seconds
#
# Revision: 0
# Processed by: cddbd v1.5.2PL0 Copyright (c) Steve Scherf et al.
# Submitted via: ExactAudioCopy v1.0b3
#
DISCID=5f108218
DTITLE=B.B King - Blues Master Works - B.B King
DYEAR=2013
DGENRE=Blues
TTITLE0=Got The Blues
TTITLE1=Mistreated Woman
TTITLE2=The Other Night Blues
TTITLE3=Walkin' And Cryin'
TTITLE4=B.B Blues
TTITLE5=Three O'clock Blues
TTITLE6=My Own Fault Darlin'
TTITLE7=She Don't Move Me No More
TTITLE8=Someday Somewhere
TTITLE9=Don't You Want A Man Like Me?
TTITLE10=You Know I love You
TTITLE11=Highway Bound
TTITLE12=Neighbourhood Affair
TTITLE13=Why Did You Leave Me?
TTITLE14=Story From My Heart And Sole
TTITLE15=Please Help Me
TTITLE16=Praying To The Lord
TTITLE17=When My Heart Beats Like A Hammer
TTITLE18=Sneakin' Around
TTITLE19=Ten Long Years
TTITLE20=Crying Won't Help You
TTITLE21=I'mm Cracking Up Over You
TTITLE22=Sweet Little Angle
TTITLE23=Did You Ever Love A Woman?
EXTD=
EXTT0=
EXTT1=
EXTT2=
EXTT3=
EXTT4=
EXTT5=
EXTT6=
EXTT7=
EXTT8=
EXTT9=
EXTT10=
EXTT11=
EXTT12=
EXTT13=
EXTT14=
EXTT15=
EXTT16=
EXTT17=
EXTT18=
EXTT19=
EXTT20=
EXTT21=
EXTT22=
EXTT23=
PLAYORDER=
